<svg xmlns="http://www.w3.org/2000/svg" viewBox="0 0 800 450" width="800" height="450">
  <defs>
    <linearGradient id="bg1" x1="0%" y1="0%" x2="100%" y2="100%"><stop offset="0%" style="stop-color:#09090b"/><stop offset="100%" style="stop-color:#0f0a1a"/></linearGradient>
  </defs>
  <rect width="800" height="450" fill="url(#bg1)"/>
  <text x="24" y="32" font-family="system-ui,sans-serif" font-size="14" font-weight="600" fill="#f5f3ff">Sales-to-Delivery Automation</text>
  <rect x="20" y="48" width="380" height="380" rx="8" fill="#1a1625" stroke="#2e1064" stroke-width="1"/>
  <rect x="400" y="48" width="380" height="380" rx="8" fill="#1a1625" stroke="#2e1064" stroke-width="1"/>
  <rect x="28" y="56" width="364" height="28" rx="4" fill="#10b98130"/>
  <text x="40" y="75" font-family="system-ui,sans-serif" font-size="11" font-weight="500" fill="#10b981">Intake → Qualification → Approval → Booked</text>
  <rect x="28" y="92" width="364" height="40" rx="4" fill="#27272a" stroke="#3f3f46"/>
  <text x="40" y="112" font-family="system-ui,sans-serif" font-size="12" font-weight="600" fill="#f5f3ff">TechCorp « SO-2024-0842</text>
  <rect x="28" y="140" width="364" height="120" rx="4" fill="#27272a" stroke="#3f3f46"/>
  <line x1="28" y1="168" x2="392" y2="168" stroke="#3f3f46"/>
  <text x="40" y="158" font-family="system-ui,sans-serif" font-size="10" fill="#a1a1aa">Line Items</text>
  <rect x="28" y="268" width="364" height="36" rx="4" fill="#a78bfa15"/>
  <text x="40" y="290" font-family="system-ui,sans-serif" font-size="11" font-weight="600" fill="#a78bfa">Project auto-generated on confirmation</text>
  <text x="420" y="70" font-family="system-ui,sans-serif" font-size="12" font-weight="600" fill="#f5f3ff">ENG-2024-0842  TechCorp</text>
  <rect x="408" y="88" width="100" height="24" rx="4" fill="#a78bfa15" stroke="#a78bfa30"/>
  <text x="418" y="105" font-family="system-ui,sans-serif" font-size="10" fill="#a78bfa">Sales Order</text>
  <rect x="518" y="88" width="100" height="24" rx="4" fill="#a78bfa15" stroke="#a78bfa30"/>
  <text x="528" y="105" font-family="system-ui,sans-serif" font-size="10" fill="#a78bfa">3 Vendors</text>
  <rect x="408" y="120" width="85" height="52" rx="4" fill="#27272a" stroke="#3f3f46"/>
  <text x="418" y="138" font-family="system-ui,sans-serif" font-size="9" fill="#a1a1aa">Revenue</text>
  <text x="418" y="158" font-family="system-ui,sans-serif" font-size="12" font-weight="700" fill="#f5f3ff">$12,400</text>
  <rect x="503" y="120" width="85" height="52" rx="4" fill="#27272a" stroke="#3f3f46"/>
  <text x="513" y="138" font-family="system-ui,sans-serif" font-size="9" fill="#a1a1aa">Margin</text>
  <text x="513" y="158" font-family="system-ui,sans-serif" font-size="12" font-weight="700" fill="#10b981">53.2%</text>
  <rect x="408" y="180" width="180" height="32" rx="4" fill="#27272a"/>
  <text x="418" y="200" font-family="system-ui,sans-serif" font-size="10" fill="#a1a1aa">To Do</text>
  <rect x="412" y="218" width="172" height="48" rx="4" fill="#27272a" stroke="#3f3f46"/>
  <text x="422" y="238" font-family="system-ui,sans-serif" font-size="10" fill="#f5f3ff">DJ Services Setup</text>
  <text x="422" y="256" font-family="system-ui,sans-serif" font-size="9" fill="#a1a1aa">3/4 subtasks</text>
</svg>
