<svg xmlns="http://www.w3.org/2000/svg" viewBox="0 0 800 450" width="800" height="450">
  <rect width="800" height="450" fill="#fafbfc"/>
  <text x="24" y="40" font-family="system-ui,sans-serif" font-size="16" font-weight="700" fill="#111827">Sales-to-Delivery Automation</text>
  <rect x="24" y="60" width="368" height="360" rx="8" fill="#fff" stroke="#e5e7eb"/>
  <rect x="408" y="60" width="368" height="360" rx="8" fill="#fff" stroke="#e5e7eb"/>
  <rect x="32" y="76" width="352" height="80" rx="4" fill="#f9fafb"/>
  <text x="44" y="100" font-family="system-ui,sans-serif" font-size="11" fill="#6b7280">Order Header</text>
  <text x="44" y="120" font-family="system-ui,sans-serif" font-size="13" font-weight="600" fill="#111827">TechCorp " ENG-2024-0842</text>
  <rect x="32" y="168" width="352" height="100" rx="4" fill="#fff" stroke="#e5e7eb"/>
  <text x="44" y="190" font-family="system-ui,sans-serif" font-size="10" fill="#6b7280">Line Items Table</text>
  <line x1="32" y1="208" x2="384" y2="208" stroke="#e5e7eb"/>
  <rect x="32" y="280" width="352" height="36" rx="4" fill="#d1fae5"/>
  <text x="44" y="302" font-family="system-ui,sans-serif" font-size="10" font-weight="600" fill="#059669">Project auto-generated</text>
  <rect x="416" y="76" width="160" height="120" rx="4" fill="#f9fafb"/>
  <text x="428" y="100" font-family="system-ui,sans-serif" font-size="10" fill="#6b7280">Financial Cards</text>
  <text x="428" y="125" font-family="system-ui,sans-serif" font-size="14" font-weight="700" fill="#059669">$6,600</text>
  <text x="428" y="145" font-family="system-ui,sans-serif" font-size="10" fill="#6b7280">Margin 53.2%</text>
  <rect x="416" y="210" width="352" height="180" rx="4" fill="#f3f4f6"/>
  <text x="428" y="235" font-family="system-ui,sans-serif" font-size="11" font-weight="600" fill="#374151">To Do | In Progress | Waiting | Done</text>
  <rect x="428" y="250" width="160" height="50" rx="4" fill="#fff" stroke="#e5e7eb"/>
  <text x="438" y="275" font-family="system-ui,sans-serif" font-size="10" fill="#111827">Task cards</text>
</svg>
