<svg xmlns="http://www.w3.org/2000/svg" viewBox="0 0 1200 600" width="1200" height="600">
  <defs>
    <linearGradient id="darkBg15" x1="0%" y1="0%" x2="100%" y2="100%">
      <stop offset="0%" style="stop-color:#09090b;stop-opacity:1" />
      <stop offset="100%" style="stop-color:#0f0a1a;stop-opacity:1" />
    </linearGradient>
  </defs>
  
  <rect width="1200" height="600" fill="url(#darkBg15)"/>
  
  <!-- Header -->
  <rect x="0" y="0" width="1200" height="60" fill="#09090b" opacity="0.8"/>
  <text x="24" y="38" font-family="Open Sans, sans-serif" font-size="16" font-weight="600" fill="#f5f3ff">Customize Your Dashboard</text>
  <rect x="1040" y="20" width="160" height="30" rx="6" fill="#a78bfa"/>
  <text x="1120" y="39" font-family="Open Sans, sans-serif" font-size="11" font-weight="600" fill="#09090b" text-anchor="middle">Save Layout</text>
  
  <!-- Description -->
  <text x="24" y="95" font-family="Open Sans, sans-serif" font-size="12" fill="#a1a1aa">Drag widgets to reorganize • Resize edges • Config filters</text>
  
  <!-- Dashboard grid -->
  <!-- Widget 1: Revenue KPI -->
  <rect x="24" y="115" width="370" height="180" rx="10" fill="#1a1625" stroke="#a78bfa" stroke-width="2"/>
  <rect x="24" y="115" width="370" height="30" rx="10" fill="none" stroke="#a78bfa" stroke-width="1" opacity="0.5"/>
  <text x="40" y="137" font-family="Open Sans, sans-serif" font-size="11" font-weight="600" fill="#f5f3ff">Revenue This Month</text>
  <text x="340" y="137" font-family="Open Sans, sans-serif" font-size="14" fill="#a1a1aa">⋯</text>
  
  <text x="40" y="175" font-family="Open Sans, sans-serif" font-size="28" font-weight="700" fill="#22d3ee">$284,500</text>
  <text x="40" y="195" font-family="Open Sans, sans-serif" font-size="11" fill="#10b981">+22% vs last month ↑</text>
  <text x="40" y="210" font-family="Open Sans, sans-serif" font-size="10" fill="#a1a1aa">All projects, all teams</text>
  
  <!-- Resize handle -->
  <circle cx="376" cy="283" r="4" fill="#a78bfa" opacity="0.5"/>
  
  <!-- Widget 2: Projects Count -->
  <rect x="416" y="115" width="370" height="180" rx="10" fill="#1a1625" stroke="#a78bfa" stroke-width="2"/>
  <rect x="416" y="115" width="370" height="30" rx="10" fill="none" stroke="#a78bfa" stroke-width="1" opacity="0.5"/>
  <text x="432" y="137" font-family="Open Sans, sans-serif" font-size="11" font-weight="600" fill="#f5f3ff">Active Projects</text>
  <text x="732" y="137" font-family="Open Sans, sans-serif" font-size="14" fill="#a1a1aa">⋯</text>
  
  <text x="432" y="175" font-family="Open Sans, sans-serif" font-size="28" font-weight="700" fill="#a78bfa">27</text>
  <text x="432" y="195" font-family="Open Sans, sans-serif" font-size="11" fill="#fbbf24">5 at risk (review needed)</text>
  <text x="432" y="210" font-family="Open Sans, sans-serif" font-size="10" fill="#a1a1aa">Deadline monitoring enabled</text>
  
  <!-- Resize handle -->
  <circle cx="768" cy="283" r="4" fill="#a78bfa" opacity="0.5"/>
  
  <!-- Widget 3: Margin Average -->
  <rect x="808" y="115" width="368" height="180" rx="10" fill="#1a1625" stroke="#a78bfa" stroke-width="2"/>
  <rect x="808" y="115" width="368" height="30" rx="10" fill="none" stroke="#a78bfa" stroke-width="1" opacity="0.5"/>
  <text x="824" y="137" font-family="Open Sans, sans-serif" font-size="11" font-weight="600" fill="#f5f3ff">Avg Project Margin</text>
  <text x="1152" y="137" font-family="Open Sans, sans-serif" font-size="14" fill="#a1a1aa">⋯</text>
  
  <text x="824" y="175" font-family="Open Sans, sans-serif" font-size="28" font-weight="700" fill="#10b981">51.4%</text>
  <text x="824" y="195" font-family="Open Sans, sans-serif" font-size="11" fill="#10b981">Target: 50% ✓ Met</text>
  <text x="824" y="210" font-family="Open Sans, sans-serif" font-size="10" fill="#a1a1aa">27 projects analyzed</text>
  
  <!-- Resize handle -->
  <circle cx="1160" cy="283" r="4" fill="#a78bfa" opacity="0.5"/>
  
  <!-- Row 2 -->
  <!-- Widget 4: Engagement Status Chart -->
  <rect x="24" y="315" width="560" height="260" rx="10" fill="#1a1625" stroke="#a78bfa" stroke-width="2"/>
  <rect x="24" y="315" width="560" height="30" rx="10" fill="none" stroke="#a78bfa" stroke-width="1" opacity="0.5"/>
  <text x="40" y="337" font-family="Open Sans, sans-serif" font-size="11" font-weight="600" fill="#f5f3ff">Engagement Status</text>
  <text x="560" y="337" font-family="Open Sans, sans-serif" font-size="14" fill="#a1a1aa">⋯</text>
  
  <!-- Mini bar chart -->
  <rect x="50" y="380" width="35" height="140" rx="3" fill="#10b981"/>
  <text x="67" y="535" font-family="Open Sans, sans-serif" font-size="9" fill="#a1a1aa" text-anchor="middle">Active</text>
  <text x="67" y="548" font-family="Open Sans, sans-serif" font-size="9" fill="#a1a1aa" text-anchor="middle">18</text>
  
  <rect x="100" y="410" width="35" height="110" rx="3" fill="#a78bfa"/>
  <text x="117" y="535" font-family="Open Sans, sans-serif" font-size="9" fill="#a1a1aa" text-anchor="middle">Pending</text>
  <text x="117" y="548" font-family="Open Sans, sans-serif" font-size="9" fill="#a1a1aa" text-anchor="middle">5</text>
  
  <rect x="150" y="450" width="35" height="70" rx="3" fill="#22d3ee"/>
  <text x="167" y="535" font-family="Open Sans, sans-serif" font-size="9" fill="#a1a1aa" text-anchor="middle">Completed</text>
  <text x="167" y="548" font-family="Open Sans, sans-serif" font-size="9" fill="#a1a1aa" text-anchor="middle">3</text>
  
  <rect x="200" y="480" width="35" height="40" rx="3" fill="#a1a1aa"/>
  <text x="217" y="535" font-family="Open Sans, sans-serif" font-size="9" fill="#09090b" text-anchor="middle">Other</text>
  <text x="217" y="548" font-family="Open Sans, sans-serif" font-size="9" fill="#09090b" text-anchor="middle">1</text>
  
  <!-- Resize handle -->
  <circle cx="568" cy="559" r="4" fill="#a78bfa" opacity="0.5"/>
  
  <!-- Widget 5: Upcoming Deliveries -->
  <rect x="616" y="315" width="560" height="260" rx="10" fill="#1a1625" stroke="#a78bfa" stroke-width="2"/>
  <rect x="616" y="315" width="560" height="30" rx="10" fill="none" stroke="#a78bfa" stroke-width="1" opacity="0.5"/>
  <text x="632" y="337" font-family="Open Sans, sans-serif" font-size="11" font-weight="600" fill="#f5f3ff">Deliveries This Week</text>
  <text x="1152" y="337" font-family="Open Sans, sans-serif" font-size="14" fill="#a1a1aa">⋯</text>
  
  <!-- List items -->
  <rect x="632" y="370" width="510" height="40" rx="6" fill="#27272a"/>
  <text x="648" y="388" font-family="Open Sans, sans-serif" font-size="11" fill="#f5f3ff">TechCorp Platform Setup</text>
  <text x="1100" y="388" font-family="Open Sans, sans-serif" font-size="10" fill="#a78bfa" text-anchor="end">Monday</text>
  
  <rect x="632" y="420" width="510" height="40" rx="6" fill="#27272a"/>
  <text x="648" y="438" font-family="Open Sans, sans-serif" font-size="11" fill="#f5f3ff">Acme Corp Data Migration</text>
  <text x="1100" y="438" font-family="Open Sans, sans-serif" font-size="10" fill="#a78bfa" text-anchor="end">Tuesday</text>
  
  <rect x="632" y="470" width="510" height="40" rx="6" fill="#27272a"/>
  <text x="648" y="488" font-family="Open Sans, sans-serif" font-size="11" fill="#f5f3ff">Global Inc. Training</text>
  <text x="1100" y="488" font-family="Open Sans, sans-serif" font-size="10" fill="#a78bfa" text-anchor="end">Friday</text>
  
  <!-- Resize handle -->
  <circle cx="1160" cy="559" r="4" fill="#a78bfa" opacity="0.5"/>
</svg>
