<svg xmlns="http://www.w3.org/2000/svg" viewBox="0 0 1200 600" width="1200" height="600">
  <rect width="1200" height="600" fill="#ffffff"/>
  <rect x="60" y="50" width="1080" height="500" rx="18" fill="#f7fbfc" stroke="#d8ddeb"/>
  <text x="90" y="100" font-family="system-ui,sans-serif" font-size="28" font-weight="900" fill="#002d72">Stock availability check</text>
  <text x="90" y="132" font-family="system-ui,sans-serif" font-size="15" font-weight="700" fill="#573894">Warehouse, field, and reserved stock compared before purchasing</text>
  <rect x="90" y="175" width="310" height="295" rx="14" fill="#ffffff" stroke="#d8ddeb"/>
  <text x="118" y="214" font-family="system-ui,sans-serif" font-size="17" font-weight="900" fill="#002d72">Warehouse A</text>
  <rect x="118" y="242" width="230" height="16" rx="8" fill="#09cdcd"/>
  <rect x="118" y="282" width="190" height="16" rx="8" fill="#81459e"/>
  <rect x="118" y="322" width="250" height="16" rx="8" fill="#a0e5d9"/>
  <rect x="118" y="382" width="110" height="34" rx="17" fill="#09cdcd1f"/>
  <text x="144" y="404" font-family="system-ui,sans-serif" font-size="14" font-weight="800" fill="#573894">Ready</text>
  <rect x="445" y="175" width="310" height="295" rx="14" fill="#ffffff" stroke="#d8ddeb"/>
  <text x="473" y="214" font-family="system-ui,sans-serif" font-size="17" font-weight="900" fill="#002d72">Warehouse B</text>
  <rect x="473" y="242" width="160" height="16" rx="8" fill="#09cdcd"/>
  <rect x="473" y="282" width="120" height="16" rx="8" fill="#81459e"/>
  <rect x="473" y="322" width="84" height="16" rx="8" fill="#a0e5d9"/>
  <rect x="473" y="382" width="128" height="34" rx="17" fill="#81459e1f"/>
  <text x="496" y="404" font-family="system-ui,sans-serif" font-size="14" font-weight="800" fill="#573894">Partial</text>
  <rect x="800" y="175" width="310" height="295" rx="14" fill="#ffffff" stroke="#d8ddeb"/>
  <text x="828" y="214" font-family="system-ui,sans-serif" font-size="17" font-weight="900" fill="#002d72">Field Stock</text>
  <rect x="828" y="242" width="96" height="16" rx="8" fill="#09cdcd"/>
  <rect x="828" y="282" width="72" height="16" rx="8" fill="#81459e"/>
  <rect x="828" y="322" width="132" height="16" rx="8" fill="#a0e5d9"/>
  <rect x="828" y="382" width="128" height="34" rx="17" fill="#dc26261a"/>
  <text x="850" y="404" font-family="system-ui,sans-serif" font-size="14" font-weight="800" fill="#dc2626">Shortage</text>
</svg>
