<svg xmlns="http://www.w3.org/2000/svg" viewBox="0 0 1200 600" width="1200" height="600">
  <rect width="1200" height="600" fill="#f7fbfc"/>
  <rect x="40" y="40" width="1120" height="520" rx="18" fill="#ffffff" stroke="#d8ddeb"/>
  <rect x="40" y="40" width="190" height="520" rx="18" fill="#06173a"/>
  <text x="70" y="92" font-family="system-ui,sans-serif" font-size="19" font-weight="800" fill="#ffffff">Supply Desk</text>
  <rect x="64" y="130" width="132" height="38" rx="10" fill="#a0e5d929"/>
  <text x="82" y="154" font-family="system-ui,sans-serif" font-size="13" font-weight="700" fill="#ffffff">Plan</text>
  <text x="82" y="205" font-family="system-ui,sans-serif" font-size="13" font-weight="700" fill="#cbd5e1">Stock</text>
  <text x="82" y="250" font-family="system-ui,sans-serif" font-size="13" font-weight="700" fill="#cbd5e1">Purchasing</text>
  <text x="82" y="295" font-family="system-ui,sans-serif" font-size="13" font-weight="700" fill="#cbd5e1">Approvals</text>
  <text x="270" y="92" font-family="system-ui,sans-serif" font-size="14" font-weight="800" fill="#573894">INVENTORY AND PURCHASING ALLOCATION</text>
  <text x="270" y="134" font-family="system-ui,sans-serif" font-size="34" font-weight="900" fill="#002d72">Allocation plan ready for review</text>
  <rect x="270" y="172" width="190" height="82" rx="14" fill="#ffffff" stroke="#d8ddeb"/>
  <text x="292" y="205" font-family="system-ui,sans-serif" font-size="13" font-weight="700" fill="#28406f">Material lines</text>
  <text x="292" y="235" font-family="system-ui,sans-serif" font-size="30" font-weight="900" fill="#002d72">40+</text>
  <rect x="480" y="172" width="190" height="82" rx="14" fill="#ffffff" stroke="#d8ddeb"/>
  <text x="502" y="205" font-family="system-ui,sans-serif" font-size="13" font-weight="700" fill="#28406f">Stock matched</text>
  <text x="502" y="235" font-family="system-ui,sans-serif" font-size="30" font-weight="900" fill="#002d72">68%</text>
  <rect x="690" y="172" width="190" height="82" rx="14" fill="#ffffff" stroke="#d8ddeb"/>
  <text x="712" y="205" font-family="system-ui,sans-serif" font-size="13" font-weight="700" fill="#28406f">Purchase gap</text>
  <text x="712" y="235" font-family="system-ui,sans-serif" font-size="30" font-weight="900" fill="#002d72">$4.3K</text>
  <rect x="900" y="172" width="190" height="82" rx="14" fill="#ffffff" stroke="#d8ddeb"/>
  <text x="922" y="205" font-family="system-ui,sans-serif" font-size="13" font-weight="700" fill="#28406f">Best lead time</text>
  <text x="922" y="235" font-family="system-ui,sans-serif" font-size="30" font-weight="900" fill="#002d72">5d</text>
  <rect x="270" y="290" width="520" height="212" rx="14" fill="#ffffff" stroke="#d8ddeb"/>
  <text x="292" y="326" font-family="system-ui,sans-serif" font-size="17" font-weight="900" fill="#002d72">Allocation plan</text>
  <text x="292" y="365" font-family="system-ui,sans-serif" font-size="12" font-weight="800" fill="#28406f">ITEM</text>
  <text x="540" y="365" font-family="system-ui,sans-serif" font-size="12" font-weight="800" fill="#28406f">REQ</text>
  <text x="610" y="365" font-family="system-ui,sans-serif" font-size="12" font-weight="800" fill="#28406f">STOCK</text>
  <text x="700" y="365" font-family="system-ui,sans-serif" font-size="12" font-weight="800" fill="#28406f">DECISION</text>
  <line x1="292" y1="382" x2="760" y2="382" stroke="#d8ddeb"/>
  <text x="292" y="416" font-family="system-ui,sans-serif" font-size="14" font-weight="800" fill="#002d72">Controller kit</text>
  <text x="545" y="416" font-family="system-ui,sans-serif" font-size="14" fill="#002d72">12</text>
  <text x="625" y="416" font-family="system-ui,sans-serif" font-size="14" fill="#002d72">8</text>
  <rect x="700" y="398" width="58" height="27" rx="14" fill="#09cdcd1f"/>
  <text x="716" y="416" font-family="system-ui,sans-serif" font-size="13" font-weight="800" fill="#573894">Buy 4</text>
  <text x="292" y="458" font-family="system-ui,sans-serif" font-size="14" font-weight="800" fill="#002d72">Mounting rail</text>
  <text x="545" y="458" font-family="system-ui,sans-serif" font-size="14" fill="#002d72">36</text>
  <text x="625" y="458" font-family="system-ui,sans-serif" font-size="14" fill="#002d72">42</text>
  <rect x="700" y="440" width="76" height="27" rx="14" fill="#09cdcd1f"/>
  <text x="716" y="458" font-family="system-ui,sans-serif" font-size="13" font-weight="800" fill="#573894">Reserve</text>
  <rect x="830" y="290" width="260" height="212" rx="14" fill="#ffffff" stroke="#d8ddeb"/>
  <text x="852" y="326" font-family="system-ui,sans-serif" font-size="17" font-weight="900" fill="#002d72">Review queue</text>
  <rect x="852" y="354" width="206" height="36" rx="10" fill="#f7fbfc" stroke="#d8ddeb"/>
  <text x="870" y="377" font-family="system-ui,sans-serif" font-size="13" font-weight="750" fill="#002d72">Reserve available stock</text>
  <rect x="852" y="404" width="206" height="36" rx="10" fill="#f7fbfc" stroke="#d8ddeb"/>
  <text x="870" y="427" font-family="system-ui,sans-serif" font-size="13" font-weight="750" fill="#002d72">Purchase from Vendor A</text>
  <rect x="852" y="454" width="206" height="36" rx="10" fill="#f7fbfc" stroke="#d8ddeb"/>
  <text x="870" y="477" font-family="system-ui,sans-serif" font-size="13" font-weight="750" fill="#002d72">Flag lead-time risk</text>
</svg>
