<svg xmlns="http://www.w3.org/2000/svg" viewBox="0 0 800 450" width="800" height="450">
  <rect width="800" height="450" fill="#09090b"/>
  <rect x="12" y="12" width="376" height="80" rx="6" fill="#27272a"/>
  <text x="24" y="42" font-family="system-ui,sans-serif" font-size="11" font-weight="600" fill="#a1a1aa">Internal View</text>
  <rect x="20" y="100" width="360" height="320" rx="8" fill="#1a1625" stroke="#2e1064"/>
  <text x="32" y="128" font-family="system-ui,sans-serif" font-size="14" font-weight="700" fill="#f5f3ff">Elite Sound Productions</text>
  <rect x="32" y="138" width="50" height="22" rx="4" fill="#10b98130"/>
  <text x="40" y="154" font-family="system-ui,sans-serif" font-size="10" fill="#10b981">Active</text>
  <rect x="90" y="138" width="60" height="22" rx="4" fill="#10b98130"/>
  <text x="98" y="154" font-family="system-ui,sans-serif" font-size="10" fill="#10b981">Compliant</text>
  <rect x="32" y="170" width="90" height="24" rx="4" fill="#a78bfa15"/>
  <text x="40" y="186" font-family="system-ui,sans-serif" font-size="10" fill="#a78bfa">12 Assignments</text>
  <rect x="412" y="12" width="376" height="80" rx="6" fill="#27272a"/>
  <text x="424" y="42" font-family="system-ui,sans-serif" font-size="11" font-weight="600" fill="#a1a1aa">Vendor Portal View</text>
  <rect x="420" y="100" width="360" height="320" rx="8" fill="#1a1625" stroke="#2e1064"/>
  <text x="432" y="128" font-family="system-ui,sans-serif" font-size="14" font-weight="700" fill="#f5f3ff">My Dashboard</text>
  <rect x="432" y="150" width="160" height="50" rx="6" fill="#27272a"/>
  <text x="444" y="175" font-family="system-ui,sans-serif" font-size="11" fill="#a1a1aa">2 Pending Assignments</text>
  <rect x="432" y="218" width="336" height="100" rx="6" fill="#27272a" stroke="#3f3f46"/>
  <text x="444" y="248" font-family="system-ui,sans-serif" font-size="12" font-weight="600" fill="#f5f3ff">TechCorp Annual Gala</text>
  <rect x="444" y="268" width="100" height="32" rx="4" fill="#a78bfa"/>
  <text x="494" y="288" font-family="system-ui,sans-serif" font-size="10" font-weight="600" fill="#09090b" text-anchor="middle">Accept &amp; Sign</text>
  <rect x="554" y="268" width="80" height="32" rx="4" fill="none" stroke="#dc2626"/>
  <text x="594" y="288" font-family="system-ui,sans-serif" font-size="10" font-weight="600" fill="#dc2626" text-anchor="middle">Decline</text>
</svg>
