<svg xmlns="http://www.w3.org/2000/svg" viewBox="0 0 1200 600" width="1200" height="600">
  <rect width="1200" height="600" fill="#09090b"/>
  
  <!-- Left section header -->
  <rect x="0" y="0" width="600" height="40" fill="#27272a"/>
  <text x="20" y="26" font-family="system-ui,sans-serif" font-size="12" font-weight="600" fill="#a1a1aa">Internal View</text>
  
  <!-- Left panel: Internal View -->
  <rect x="20" y="50" width="560" height="530" rx="8" fill="#1a1625" stroke="#2e1064" stroke-width="1"/>
  
  <text x="40" y="85" font-family="system-ui,sans-serif" font-size="14" font-weight="700" fill="#f5f3ff">Elite Sound Productions</text>
  
  <rect x="40" y="105" width="50" height="22" rx="4" fill="#10b98130"/>
  <text x="48" y="120" font-family="system-ui,sans-serif" font-size="10" fill="#10b981">Active</text>
  
  <rect x="100" y="105" width="70" height="22" rx="4" fill="#10b98130"/>
  <text x="108" y="120" font-family="system-ui,sans-serif" font-size="10" fill="#10b981">Compliant</text>
  
  <rect x="40" y="145" width="100" height="24" rx="4" fill="#a78bfa15"/>
  <text x="50" y="161" font-family="system-ui,sans-serif" font-size="10" fill="#a78bfa">12 Assignments</text>
  
  <text x="40" y="200" font-family="system-ui,sans-serif" font-size="11" font-weight="600" fill="#f5f3ff">Recent Assignments</text>
  
  <rect x="40" y="220" width="500" height="45" rx="6" fill="#27272a" stroke="#3f3f46" stroke-width="1"/>
  <text x="55" y="245" font-family="system-ui,sans-serif" font-size="11" fill="#f5f3ff">TechCorp Annual Gala</text>
  <text x="460" y="245" font-family="system-ui,sans-serif" font-size="9" fill="#a1a1aa" text-anchor="end">Confirmed</text>
  
  <rect x="40" y="280" width="500" height="45" rx="6" fill="#27272a" stroke="#3f3f46" stroke-width="1"/>
  <text x="55" y="305" font-family="system-ui,sans-serif" font-size="11" fill="#f5f3ff">Website Migration Services</text>
  <text x="460" y="305" font-family="system-ui,sans-serif" font-size="9" fill="#a1a1aa" text-anchor="end">In Progress</text>
  
  <rect x="40" y="340" width="500" height="45" rx="6" fill="#27272a" stroke="#3f3f46" stroke-width="1"/>
  <text x="55" y="365" font-family="system-ui,sans-serif" font-size="11" fill="#f5f3ff">Mobile App Development</text>
  <text x="460" y="365" font-family="system-ui,sans-serif" font-size="9" fill="#a1a1aa" text-anchor="end">Pending</text>
  
  <!-- Right section header -->
  <rect x="600" y="0" width="600" height="40" fill="#a78bfa30"/>
  <text x="620" y="26" font-family="system-ui,sans-serif" font-size="12" font-weight="600" fill="#a78bfa">Vendor Portal View</text>
  
  <!-- Right panel: Vendor Portal -->
  <rect x="620" y="50" width="560" height="530" rx="8" fill="#1a1625" stroke="#2e1064" stroke-width="1"/>
  
  <text x="640" y="85" font-family="system-ui,sans-serif" font-size="14" font-weight="700" fill="#f5f3ff">My Dashboard</text>
  
  <rect x="640" y="110" width="200" height="50" rx="6" fill="#27272a" stroke="#3f3f46" stroke-width="1"/>
  <text x="655" y="130" font-family="system-ui,sans-serif" font-size="10" fill="#a1a1aa">PENDING ASSIGNMENTS</text>
  <text x="655" y="150" font-family="system-ui,sans-serif" font-size="18" font-weight="700" fill="#22d3ee">3</text>
  
  <rect x="860" y="110" width="200" height="50" rx="6" fill="#27272a" stroke="#3f3f46" stroke-width="1"/>
  <text x="875" y="130" font-family="system-ui,sans-serif" font-size="10" fill="#a1a1aa">COMPLETED</text>
  <text x="875" y="150" font-family="system-ui,sans-serif" font-size="18" font-weight="700" fill="#10b981">14</text>
  
  <!-- Active assignments -->
  <rect x="640" y="180" width="520" height="80" rx="6" fill="#27272a" stroke="#3f3f46" stroke-width="1"/>
  <text x="655" y="205" font-family="system-ui,sans-serif" font-size="12" font-weight="600" fill="#f5f3ff">TechCorp Annual Gala</text>
  <text x="655" y="222" font-family="system-ui,sans-serif" font-size="10" fill="#a1a1aa">Due in 2 days • Budget: $3,500</text>
  
  <rect x="900" y="195" width="130" height="32" rx="6" fill="#a78bfa"/>
  <text x="965" y="215" font-family="system-ui,sans-serif" font-size="11" font-weight="600" fill="#09090b" text-anchor="middle">Accept & Sign</text>
  
  <rect x="640" y="280" width="520" height="80" rx="6" fill="#27272a" stroke="#3f3f46" stroke-width="1"/>
  <text x="655" y="305" font-family="system-ui,sans-serif" font-size="12" font-weight="600" fill="#f5f3ff">Website Migration Services</text>
  <text x="655" y="322" font-family="system-ui,sans-serif" font-size="10" fill="#a1a1aa">In Progress • 7 days remaining</text>
  
  <rect x="900" y="295" width="130" height="32" rx="6" fill="#27272a" stroke="#3f3f46" stroke-width="1"/>
  <text x="965" y="315" font-family="system-ui,sans-serif" font-size="11" font-weight="600" fill="#a1a1aa" text-anchor="middle">View Details</text>
  
  <rect x="640" y="380" width="520" height="80" rx="6" fill="#27272a" stroke="#3f3f46" stroke-width="1"/>
  <text x="655" y="405" font-family="system-ui,sans-serif" font-size="12" font-weight="600" fill="#f5f3ff">Mobile App Development</text>
  <text x="655" y="422" font-family="system-ui,sans-serif" font-size="10" fill="#a1a1aa">Pending • Budget: $12,000</text>
  
  <rect x="900" y="395" width="130" height="32" rx="6" fill="#27272a" stroke="#3f3f46" stroke-width="1"/>
  <text x="965" y="415" font-family="system-ui,sans-serif" font-size="11" font-weight="600" fill="#a1a1aa" text-anchor="middle">View Details</text>
</svg>
