<svg xmlns="http://www.w3.org/2000/svg" viewBox="0 0 800 450" width="800" height="450">
  <rect width="800" height="450" fill="#fafbfc"/>
  <rect x="12" y="12" width="376" height="80" rx="6" fill="#f3f4f6"/>
  <text x="24" y="42" font-family="system-ui,sans-serif" font-size="11" font-weight="600" fill="#6b7280">Internal View</text>
  <rect x="20" y="100" width="360" height="320" rx="8" fill="#fff" stroke="#e5e7eb"/>
  <text x="32" y="128" font-family="system-ui,sans-serif" font-size="14" font-weight="700" fill="#111827">Elite Sound Productions</text>
  <rect x="32" y="138" width="50" height="22" rx="4" fill="#d1fae5"/>
  <text x="40" y="154" font-family="system-ui,sans-serif" font-size="10" fill="#059669">Active</text>
  <rect x="90" y="138" width="60" height="22" rx="4" fill="#d1fae5"/>
  <text x="98" y="154" font-family="system-ui,sans-serif" font-size="10" fill="#059669">Compliant</text>
  <rect x="32" y="170" width="90" height="24" rx="4" fill="#eff6ff"/>
  <text x="40" y="186" font-family="system-ui,sans-serif" font-size="10" fill="#2563eb">12 Assignments</text>
  <rect x="412" y="12" width="376" height="80" rx="6" fill="#f3f4f6"/>
  <text x="424" y="42" font-family="system-ui,sans-serif" font-size="11" font-weight="600" fill="#6b7280">Vendor Portal View</text>
  <rect x="420" y="100" width="360" height="320" rx="8" fill="#fff" stroke="#e5e7eb"/>
  <text x="432" y="128" font-family="system-ui,sans-serif" font-size="14" font-weight="700" fill="#111827">My Dashboard</text>
  <rect x="432" y="150" width="160" height="50" rx="6" fill="#f9fafb"/>
  <text x="444" y="175" font-family="system-ui,sans-serif" font-size="11" fill="#374151">2 Pending Assignments</text>
  <rect x="432" y="218" width="336" height="100" rx="6" fill="#f9fafb" stroke="#e5e7eb"/>
  <text x="444" y="248" font-family="system-ui,sans-serif" font-size="12" font-weight="600" fill="#111827">TechCorp Annual Gala</text>
  <rect x="444" y="268" width="100" height="32" rx="4" fill="#059669"/>
  <text x="464" y="288" font-family="system-ui,sans-serif" font-size="10" font-weight="600" fill="#fff" text-anchor="middle">Accept &amp; Sign</text>
  <rect x="554" y="268" width="80" height="32" rx="4" fill="none" stroke="#dc2626"/>
  <text x="574" y="288" font-family="system-ui,sans-serif" font-size="10" font-weight="600" fill="#dc2626" text-anchor="middle">Decline</text>
</svg>
